<svg xmlns="http://www.w3.org/2000/svg" viewBox="0 0 200 200" fill="none">
  <!-- 背景圆形 -->
  <circle cx="100" cy="100" r="95" fill="#3B82F6" opacity="0.1"/>
  
  <!-- 主图标 - 看板/仪表盘 -->
  <g transform="translate(100, 100)">
    <!-- 外圈仪表盘 -->
    <circle cx="0" cy="0" r="60" stroke="#3B82F6" stroke-width="8" fill="white"/>
    
    <!-- 刻度线 -->
    <line x1="0" y1="-60" x2="0" y2="-50" stroke="#3B82F6" stroke-width="3"/>
    <line x1="52" y1="-30" x2="43" y2="-25" stroke="#3B82F6" stroke-width="3"/>
    <line x1="52" y1="30" x2="43" y2="25" stroke="#3B82F6" stroke-width="3"/>
    <line x1="0" y1="60" x2="0" y2="50" stroke="#3B82F6" stroke-width="3"/>
    <line x1="-52" y1="30" x2="-43" y2="25" stroke="#3B82F6" stroke-width="3"/>
    <line x1="-52" y1="-30" x2="-43" y2="-25" stroke="#3B82F6" stroke-width="3"/>
    
    <!-- 指针 -->
    <g transform="rotate(-45)">
      <line x1="0" y1="0" x2="0" y2="-45" stroke="#F59E0B" stroke-width="5" stroke-linecap="round"/>
      <circle cx="0" cy="-45" r="4" fill="#F59E0B"/>
    </g>
    
    <!-- 中心点 -->
    <circle cx="0" cy="0" r="8" fill="#3B82F6"/>
    <circle cx="0" cy="0" r="5" fill="white"/>
    
    <!-- 底部文档图标 -->
    <g transform="translate(-25, 25)">
      <rect x="0" y="0" width="20" height="25" rx="2" fill="#8B5CF6" opacity="0.8"/>
      <line x1="3" y1="6" x2="17" y2="6" stroke="white" stroke-width="2" stroke-linecap="round"/>
      <line x1="3" y1="11" x2="17" y2="11" stroke="white" stroke-width="2" stroke-linecap="round"/>
      <line x1="3" y1="16" x2="12" y2="16" stroke="white" stroke-width="2" stroke-linecap="round"/>
    </g>
    
    <!-- 右侧计算器图标 -->
    <g transform="translate(10, 25)">
      <rect x="0" y="0" width="20" height="25" rx="2" fill="#10B981" opacity="0.8"/>
      <rect x="3" y="3" width="14" height="6" rx="1" fill="white" opacity="0.9"/>
      <circle cx="6" cy="14" r="2" fill="white" opacity="0.9"/>
      <circle cx="14" cy="14" r="2" fill="white" opacity="0.9"/>
      <circle cx="6" cy="20" r="2" fill="white" opacity="0.9"/>
      <circle cx="14" cy="20" r="2" fill="white" opacity="0.9"/>
    </g>
  </g>
  
  <!-- 装饰性元素 -->
  <circle cx="30" cy="30" r="4" fill="#3B82F6" opacity="0.3"/>
  <circle cx="170" cy="40" r="3" fill="#8B5CF6" opacity="0.3"/>
  <circle cx="160" cy="160" r="4" fill="#10B981" opacity="0.3"/>
  <circle cx="40" cy="170" r="3" fill="#F59E0B" opacity="0.3"/>
</svg>

